<svg width="400" height="100" viewBox="0 0 400 100" fill="none" xmlns="http://www.w3.org/2000/svg">
<path d="M114.477 82.672C113.005 82.672 111.853 82.256 111.021 81.424C110.189 80.592 109.773 79.408 109.773 77.872V19.12C109.773 17.584 110.189 16.4 111.021 15.568C111.853 14.736 113.037 14.32 114.573 14.32H149.037C150.317 14.32 151.277 14.64 151.917 15.28C152.557 15.856 152.877 16.72 152.877 17.872C152.877 19.088 152.557 20.016 151.917 20.656C151.277 21.296 150.317 21.616 149.037 21.616H118.701V44.272H147.117C148.333 44.272 149.261 44.592 149.901 45.232C150.541 45.872 150.861 46.736 150.861 47.824C150.861 49.04 150.541 49.968 149.901 50.608C149.261 51.248 148.333 51.568 147.117 51.568H118.701V77.872C118.701 81.072 117.293 82.672 114.477 82.672ZM165.144 82.672C163.736 82.672 162.648 82.288 161.88 81.52C161.112 80.688 160.728 79.536 160.728 78.064V18.256C160.728 16.72 161.112 15.568 161.88 14.8C162.648 14.032 163.736 13.648 165.144 13.648C166.616 13.648 167.736 14.032 168.504 14.8C169.272 15.568 169.656 16.72 169.656 18.256V78.064C169.656 79.536 169.272 80.688 168.504 81.52C167.8 82.288 166.68 82.672 165.144 82.672ZM204.381 82.864C199.325 82.864 194.973 81.904 191.325 79.984C187.741 78 184.957 75.216 182.973 71.632C180.989 67.984 179.997 63.696 179.997 58.768C179.997 53.904 180.957 49.648 182.877 46C184.861 42.352 187.549 39.504 190.941 37.456C194.397 35.408 198.333 34.384 202.749 34.384C205.885 34.384 208.701 34.928 211.197 36.016C213.757 37.04 215.933 38.544 217.725 40.528C219.517 42.512 220.861 44.944 221.757 47.824C222.717 50.64 223.197 53.84 223.197 57.424C223.197 58.448 222.877 59.248 222.237 59.824C221.661 60.336 220.797 60.592 219.645 60.592H186.813V55.024H217.437L215.805 56.368C215.805 53.04 215.293 50.224 214.269 47.92C213.309 45.552 211.869 43.76 209.949 42.544C208.093 41.328 205.757 40.72 202.941 40.72C199.869 40.72 197.245 41.456 195.069 42.928C192.893 44.336 191.229 46.352 190.077 48.976C188.925 51.536 188.349 54.512 188.349 57.904V58.48C188.349 64.24 189.725 68.592 192.477 71.536C195.229 74.48 199.197 75.952 204.381 75.952C206.429 75.952 208.509 75.696 210.621 75.184C212.797 74.672 214.877 73.744 216.861 72.4C217.821 71.824 218.685 71.568 219.453 71.632C220.285 71.632 220.957 71.888 221.469 72.4C221.981 72.848 222.301 73.424 222.429 74.128C222.557 74.768 222.461 75.472 222.141 76.24C221.821 77.008 221.213 77.68 220.317 78.256C218.205 79.728 215.677 80.88 212.733 81.712C209.853 82.48 207.069 82.864 204.381 82.864ZM232.727 82.576C231.767 82.576 230.935 82.288 230.231 81.712C229.527 81.136 229.143 80.368 229.079 79.408C229.079 78.448 229.495 77.424 230.327 76.336L246.935 55.696V60.016L231.383 40.816C230.487 39.728 230.071 38.704 230.135 37.744C230.199 36.784 230.551 36.016 231.191 35.44C231.895 34.864 232.759 34.576 233.783 34.576C234.871 34.576 235.767 34.768 236.471 35.152C237.239 35.536 237.943 36.144 238.583 36.976L251.831 53.776H248.759L262.007 36.976C262.647 36.144 263.319 35.536 264.023 35.152C264.791 34.768 265.687 34.576 266.711 34.576C267.735 34.576 268.567 34.864 269.207 35.44C269.911 36.016 270.263 36.784 270.263 37.744C270.327 38.704 269.943 39.728 269.111 40.816L253.655 59.824V55.984L270.167 76.336C271.063 77.36 271.479 78.352 271.415 79.312C271.351 80.272 270.967 81.072 270.263 81.712C269.623 82.288 268.791 82.576 267.767 82.576C266.679 82.576 265.751 82.384 264.983 82C264.279 81.616 263.607 81.008 262.967 80.176L248.663 62.224H251.639L237.527 80.176C236.887 80.944 236.183 81.552 235.415 82C234.711 82.384 233.815 82.576 232.727 82.576ZM308.881 82.864C304.401 82.864 300.433 82.288 296.977 81.136C293.585 79.92 290.737 78.16 288.433 75.856C286.129 73.488 284.369 70.576 283.153 67.12C282.001 63.6 281.425 59.536 281.425 54.928V18.16C281.425 16.624 281.809 15.504 282.577 14.8C283.345 14.032 284.433 13.648 285.841 13.648C287.313 13.648 288.433 14.032 289.201 14.8C289.969 15.504 290.353 16.624 290.353 18.16V54.64C290.353 61.488 291.921 66.608 295.057 70C298.193 73.328 302.801 74.992 308.881 74.992C314.961 74.992 319.569 73.328 322.705 70C325.841 66.608 327.409 61.488 327.409 54.64V18.16C327.409 16.624 327.793 15.504 328.561 14.8C329.329 14.032 330.417 13.648 331.825 13.648C333.233 13.648 334.321 14.032 335.089 14.8C335.857 15.504 336.241 16.624 336.241 18.16V54.928C336.241 61.008 335.185 66.128 333.073 70.288C331.025 74.448 327.953 77.584 323.857 79.696C319.825 81.808 314.833 82.864 308.881 82.864ZM353.372 99.952C352.028 99.952 350.972 99.568 350.204 98.8C349.436 98.032 349.052 96.944 349.052 95.536V38.992C349.052 37.52 349.436 36.432 350.204 35.728C350.972 34.96 352.028 34.576 353.372 34.576C354.78 34.576 355.836 34.96 356.54 35.728C357.308 36.432 357.692 37.52 357.692 38.992V47.728L356.636 46C357.66 42.48 359.676 39.664 362.684 37.552C365.692 35.44 369.308 34.384 373.532 34.384C377.692 34.384 381.308 35.376 384.38 37.36C387.452 39.28 389.852 42.064 391.58 45.712C393.308 49.296 394.172 53.584 394.172 58.576C394.172 63.504 393.308 67.824 391.58 71.536C389.916 75.184 387.516 78 384.38 79.984C381.308 81.904 377.692 82.864 373.532 82.864C369.372 82.864 365.788 81.808 362.78 79.696C359.772 77.584 357.756 74.8 356.732 71.344H357.788V95.536C357.788 96.944 357.404 98.032 356.636 98.8C355.868 99.568 354.78 99.952 353.372 99.952ZM371.516 75.952C374.268 75.952 376.668 75.28 378.716 73.936C380.828 72.592 382.46 70.64 383.612 68.08C384.764 65.52 385.34 62.352 385.34 58.576C385.34 52.944 384.092 48.656 381.596 45.712C379.1 42.768 375.74 41.296 371.516 41.296C368.7 41.296 366.236 41.968 364.124 43.312C362.076 44.592 360.476 46.512 359.324 49.072C358.236 51.632 357.692 54.8 357.692 58.576C357.692 64.208 358.94 68.528 361.436 71.536C363.932 74.48 367.292 75.952 371.516 75.952Z" fill="#1F3F5F"/>
<path fill-rule="evenodd" clip-rule="evenodd" d="M26.3154 39.7864C20.2459 45.6855 16.8693 53.1434 15.8447 61.1514C15.4497 68.4286 16.8711 71.4024 22.8942 74.214C31.3582 77.4044 41.8011 78.087 50.0741 74.7895C60.1236 70.6309 67.7579 61.1705 70.5142 50.7192C68.5273 48.4519 66.4089 46.4217 64.2378 44.9697C61.4018 56.8592 54.2602 67.4005 41.629 69.591C34.7226 70.6718 26.4178 69.2083 22.7363 65.8159C22.1334 59.7978 24.2345 54.9751 26.947 50C26.4075 46.956 26.0259 43.7494 26.3154 39.7864Z" fill="#5B9BD5"/>
<path fill-rule="evenodd" clip-rule="evenodd" d="M42.3146 14.4743C34.3979 20.4975 30.0291 27.2669 28.6312 37.7015C26.987 49.976 31.7325 59.9628 38.913 67.2134C41.9452 66.7081 44.6317 65.9319 47.1712 64.8911C41.3558 60.0159 35.182 51.7573 35.5103 41.5856C35.8543 30.9247 41.7103 18.6214 49.895 18.3675C52.4029 18.2897 58.6589 24.5346 61.2375 29.6513C64.0402 30.6801 67.2719 32.4302 70.4694 34.3351C68.1522 26.1049 63.775 18.9566 57.6268 14.5774C52.1521 10.4359 47.7055 10.1289 42.3146 14.4743Z" fill="#ED7D31"/>
<path fill-rule="evenodd" clip-rule="evenodd" d="M40.2106 31.8956C39.4211 34.6428 38.658 37.4148 38.5132 40.0542C49.5778 34.7443 63.7915 37.7575 71.1097 47.7084C74.8709 52.7987 78.1243 62.187 76.8393 65.5838C73.771 68.8981 66.9626 69.8921 61.7058 69.9556C59.6794 71.63 56.352 74.081 53.3913 75.8459C61.2577 77.9171 70.3087 77.0646 77.2514 73.9091C83.519 70.6541 84.3665 67.3079 83.9491 60.9479C82.7382 51.977 79.3393 43.9458 71.1225 37.5216C61.4561 29.964 50.54 29.5899 40.2106 31.8956Z" fill="#70AD47"/>
<path fill-rule="evenodd" clip-rule="evenodd" d="M49.8553 3.89155e-05C41.3945 0.0105389 32.8284 2.1659 24.9993 6.69004C1.1169 20.4779 -7.09396 51.1238 6.68288 75.0051C20.4728 98.8863 51.1186 107.097 75.001 93.3098C98.8834 79.522 107.094 48.8756 93.3174 24.9944C84.0539 8.94938 67.1718 -0.0215611 49.8553 3.89155e-05ZM49.8953 7.40019C64.6327 7.36569 78.962 15.0059 86.8702 28.7128C98.6469 49.1139 91.6862 75.0899 71.2908 86.8686C50.8822 98.6467 24.9076 91.689 13.1309 71.288C1.35412 50.8871 8.31494 24.9071 28.7104 13.1287C35.408 9.26392 42.6977 7.41699 49.8953 7.40019Z" fill="#1F3F5F"/>
</svg>
