<svg width="100" height="100" viewBox="0 0 100 100" fill="none" xmlns="http://www.w3.org/2000/svg">
<path fill-rule="evenodd" clip-rule="evenodd" d="M26.3154 39.7864C20.2459 45.6855 16.8693 53.1434 15.8447 61.1514C15.4497 68.4286 16.8711 71.4024 22.8942 74.214C31.3582 77.4044 41.8011 78.087 50.0741 74.7895C60.1236 70.6309 67.7579 61.1705 70.5142 50.7192C68.5273 48.4519 66.4089 46.4217 64.2378 44.9697C61.4018 56.8592 54.2602 67.4005 41.629 69.591C34.7226 70.6718 26.4178 69.2083 22.7363 65.8159C22.1334 59.7978 24.2345 54.9751 26.947 50C26.4075 46.956 26.0259 43.7494 26.3154 39.7864Z" fill="#5B9BD5"/>
<path fill-rule="evenodd" clip-rule="evenodd" d="M42.3146 14.4743C34.3979 20.4975 30.0291 27.2669 28.6312 37.7015C26.987 49.976 31.7325 59.9628 38.913 67.2134C41.9452 66.7081 44.6317 65.9319 47.1712 64.8911C41.3558 60.0159 35.182 51.7573 35.5103 41.5856C35.8543 30.9247 41.7103 18.6214 49.895 18.3675C52.4029 18.2897 58.6589 24.5346 61.2375 29.6513C64.0402 30.6801 67.2719 32.4302 70.4694 34.3351C68.1522 26.1049 63.775 18.9566 57.6268 14.5774C52.1521 10.4359 47.7055 10.1289 42.3146 14.4743Z" fill="#ED7D31"/>
<path fill-rule="evenodd" clip-rule="evenodd" d="M40.2106 31.8956C39.4211 34.6428 38.658 37.4148 38.5132 40.0542C49.5778 34.7443 63.7915 37.7575 71.1097 47.7084C74.8709 52.7987 78.1243 62.187 76.8393 65.5838C73.771 68.8981 66.9626 69.8921 61.7058 69.9556C59.6794 71.63 56.352 74.081 53.3913 75.8459C61.2577 77.9171 70.3087 77.0646 77.2514 73.9091C83.519 70.6541 84.3665 67.3079 83.9491 60.9479C82.7382 51.977 79.3393 43.9458 71.1225 37.5216C61.4561 29.964 50.54 29.5899 40.2106 31.8956Z" fill="#70AD47"/>
<path fill-rule="evenodd" clip-rule="evenodd" d="M49.8553 3.89155e-05C41.3945 0.0105389 32.8284 2.1659 24.9993 6.69004C1.1169 20.4779 -7.09396 51.1238 6.68288 75.0051C20.4728 98.8863 51.1186 107.097 75.001 93.3098C98.8834 79.522 107.094 48.8756 93.3174 24.9944C84.0539 8.94938 67.1718 -0.0215611 49.8553 3.89155e-05ZM49.8953 7.40019C64.6327 7.36569 78.962 15.0059 86.8702 28.7128C98.6469 49.1139 91.6862 75.0899 71.2908 86.8686C50.8822 98.6467 24.9076 91.689 13.1309 71.288C1.35412 50.8871 8.31494 24.9071 28.7104 13.1287C35.408 9.26392 42.6977 7.41699 49.8953 7.40019Z" fill="#1F3F5F"/>
</svg>
